{
    "asset" : {
        "generator" : "Khronos glTF Blender I/O v1.8.19",
        "version" : "2.0"
    },
    "scene" : 0,
    "scenes" : [
        {
            "name" : "Scene",
            "nodes" : [
                0,
                1,
                2,
                3,
                4
            ]
        }
    ],
    "nodes" : [
        {
            "mesh" : 0,
            "name" : "cafe shape"
        },
        {
            "mesh" : 1,
            "name" : "sign board",
            "translation" : [
                8.743026733398438,
                7.880184173583984,
                0.0874786376953125
            ]
        },
        {
            "mesh" : 2,
            "name" : "door side.001",
            "translation" : [
                4.955345153808594,
                0.8787083625793457,
                -3.062126874923706
            ]
        },
        {
            "mesh" : 3,
            "name" : "door side.002",
            "translation" : [
                4.955345153808594,
                0.8787083625793457,
                -3.062126874923706
            ]
        },
        {
            "mesh" : 4,
            "name" : "Cube.002",
            "rotation" : [
                0.7009092569351196,
                0,
                0,
                0.713250458240509
            ],
            "scale" : [
                0.31113898754119873,
                1,
                0.19562500715255737
            ],
            "translation" : [
                6.367799282073975,
                1.2317042350769043,
                -0.03732585906982422
            ]
        }
    ],
    "materials" : [
        {
            "name" : "white",
            "pbrMetallicRoughness" : {
                "baseColorFactor" : [
                    0.5704684853553772,
                    0.5525485277175903,
                    0.5007777214050293,
                    1
                ],
                "metallicFactor" : 0,
                "roughnessFactor" : 0.5
            }
        },
        {
            "doubleSided" : true,
            "name" : "ledge",
            "pbrMetallicRoughness" : {
                "baseColorFactor" : [
                    0.15742793679237366,
                    0.11511234194040298,
                    0.06043526902794838,
                    1
                ],
                "metallicFactor" : 0,
                "roughnessFactor" : 0.5
            }
        },
        {
            "doubleSided" : true,
            "name" : "lowerBuilding",
            "pbrMetallicRoughness" : {
                "baseColorFactor" : [
                    0.42269307374954224,
                    0.9258217215538025,
                    0.8731147646903992,
                    1
                ],
                "metallicFactor" : 0,
                "roughnessFactor" : 0.5
            }
        },
        {
            "doubleSided" : true,
            "name" : "topBuilding",
            "pbrMetallicRoughness" : {
                "baseColorFactor" : [
                    0.10702303797006607,
                    0.07036005705595016,
                    0.05780543014407158,
                    1
                ],
                "metallicFactor" : 0,
                "roughnessFactor" : 0.5
            }
        },
        {
            "doubleSided" : true,
            "name" : "Material.002",
            "pbrMetallicRoughness" : {
                "baseColorFactor" : [
                    1,
                    0.5840783715248108,
                    0.06301015615463257,
                    1
                ],
                "metallicFactor" : 0,
                "roughnessFactor" : 0.5
            }
        },
        {
            "doubleSided" : true,
            "name" : "Material",
            "pbrMetallicRoughness" : {
                "baseColorTexture" : {
                    "index" : 0
                },
                "metallicFactor" : 0,
                "roughnessFactor" : 0.4000000059604645
            }
        },
        {
            "doubleSided" : true,
            "name" : "Signboard",
            "pbrMetallicRoughness" : {
                "baseColorFactor" : [
                    0.40196698904037476,
                    0.2845001518726349,
                    0.03547142818570137,
                    1
                ],
                "metallicFactor" : 0,
                "roughnessFactor" : 0.5
            }
        }
    ],
    "meshes" : [
        {
            "name" : "Cube.012",
            "primitives" : [
                {
                    "attributes" : {
                        "POSITION" : 0,
                        "NORMAL" : 1,
                        "TEXCOORD_0" : 2
                    },
                    "indices" : 3,
                    "material" : 0
                },
                {
                    "attributes" : {
                        "POSITION" : 4,
                        "NORMAL" : 5,
                        "TEXCOORD_0" : 6
                    },
                    "indices" : 7,
                    "material" : 1
                },
                {
                    "attributes" : {
                        "POSITION" : 8,
                        "NORMAL" : 9,
                        "TEXCOORD_0" : 10
                    },
                    "indices" : 11,
                    "material" : 2
                },
                {
                    "attributes" : {
                        "POSITION" : 12,
                        "NORMAL" : 13,
                        "TEXCOORD_0" : 14
                    },
                    "indices" : 15,
                    "material" : 3
                },
                {
                    "attributes" : {
                        "POSITION" : 16,
                        "NORMAL" : 17,
                        "TEXCOORD_0" : 18
                    },
                    "indices" : 19,
                    "material" : 4
                }
            ]
        },
        {
            "name" : "Cube",
            "primitives" : [
                {
                    "attributes" : {
                        "POSITION" : 20,
                        "NORMAL" : 21,
                        "TEXCOORD_0" : 22
                    },
                    "indices" : 23,
                    "material" : 5
                },
                {
                    "attributes" : {
                        "POSITION" : 24,
                        "NORMAL" : 25,
                        "TEXCOORD_0" : 26
                    },
                    "indices" : 27,
                    "material" : 6
                }
            ]
        },
        {
            "name" : "Cube.002",
            "primitives" : [
                {
                    "attributes" : {
                        "POSITION" : 28,
                        "NORMAL" : 29,
                        "TEXCOORD_0" : 30
                    },
                    "indices" : 31,
                    "material" : 3
                }
            ]
        },
        {
            "name" : "Cube.003",
            "primitives" : [
                {
                    "attributes" : {
                        "POSITION" : 32,
                        "NORMAL" : 33,
                        "TEXCOORD_0" : 34
                    },
                    "indices" : 35,
                    "material" : 3
                }
            ]
        },
        {
            "name" : "Cube.005",
            "primitives" : [
                {
                    "attributes" : {
                        "POSITION" : 36,
                        "NORMAL" : 37,
                        "TEXCOORD_0" : 38
                    },
                    "indices" : 39,
                    "material" : 3
                }
            ]
        }
    ],
    "textures" : [
        {
            "sampler" : 0,
            "source" : 0
        }
    ],
    "images" : [
        {
            "bufferView" : 24,
            "mimeType" : "image/png",
            "name" : "Material Base Color"
        }
    ],
    "accessors" : [
        {
            "bufferView" : 0,
            "componentType" : 5126,
            "count" : 71,
            "max" : [
                9.018110275268555,
                11.130027770996094,
                7.1498026847839355
            ],
            "min" : [
                -6.280106544494629,
                -0.07329000532627106,
                -7.36968469619751
            ],
            "type" : "VEC3"
        },
        {
            "bufferView" : 1,
            "componentType" : 5126,
            "count" : 71,
            "type" : "VEC3"
        },
        {
            "bufferView" : 2,
            "componentType" : 5126,
            "count" : 71,
            "type" : "VEC2"
        },
        {
            "bufferView" : 3,
            "componentType" : 5123,
            "count" : 129,
            "type" : "SCALAR"
        },
        {
            "bufferView" : 4,
            "componentType" : 5126,
            "count" : 5,
            "max" : [
                6.280106544494629,
                6.444050312042236,
                6.280106544494629
            ],
            "min" : [
                6.239165306091309,
                6.25244140625,
                -6.366304874420166
            ],
            "type" : "VEC3"
        },
        {
            "bufferView" : 5,
            "componentType" : 5126,
            "count" : 5,
            "type" : "VEC3"
        },
        {
            "bufferView" : 6,
            "componentType" : 5126,
            "count" : 5,
            "type" : "VEC2"
        },
        {
            "bufferView" : 7,
            "componentType" : 5123,
            "count" : 9,
            "type" : "SCALAR"
        },
        {
            "bufferView" : 8,
            "componentType" : 5126,
            "count" : 42,
            "max" : [
                6.280106544494629,
                6.5866899490356445,
                6.280106544494629
            ],
            "min" : [
                -6.280106544494629,
                -0.07329000532627106,
                -6.280106544494629
            ],
            "type" : "VEC3"
        },
        {
            "bufferView" : 9,
            "componentType" : 5126,
            "count" : 42,
            "type" : "VEC3"
        },
        {
            "bufferView" : 10,
            "componentType" : 5126,
            "count" : 42,
            "type" : "VEC2"
        },
        {
            "bufferView" : 11,
            "componentType" : 5123,
            "count" : 66,
            "type" : "SCALAR"
        },
        {
            "bufferView" : 12,
            "componentType" : 5126,
            "count" : 26,
            "max" : [
                5.808139801025391,
                10.214789390563965,
                5.808139801025391
            ],
            "min" : [
                -5.808139801025391,
                6.5866899490356445,
                -5.808139801025391
            ],
            "type" : "VEC3"
        },
        {
            "bufferView" : 13,
            "componentType" : 5126,
            "count" : 26,
            "type" : "VEC3"
        },
        {
            "bufferView" : 14,
            "componentType" : 5126,
            "count" : 26,
            "type" : "VEC2"
        },
        {
            "bufferView" : 15,
            "componentType" : 5123,
            "count" : 42,
            "type" : "SCALAR"
        },
        {
            "bufferView" : 16,
            "componentType" : 5126,
            "count" : 6,
            "max" : [
                9.018110275268555,
                6.444050312042236,
                7.1498026847839355
            ],
            "min" : [
                6.239165306091309,
                4.962630748748779,
                -7.36968469619751
            ],
            "type" : "VEC3"
        },
        {
            "bufferView" : 17,
            "componentType" : 5126,
            "count" : 6,
            "type" : "VEC3"
        },
        {
            "bufferView" : 18,
            "componentType" : 5126,
            "count" : 6,
            "type" : "VEC2"
        },
        {
            "bufferView" : 19,
            "componentType" : 5123,
            "count" : 12,
            "type" : "SCALAR"
        },
        {
            "bufferView" : 20,
            "componentType" : 5126,
            "count" : 4,
            "max" : [
                -2.773691177368164,
                1.1744115352630615,
                2.5765397548675537
            ],
            "min" : [
                -2.773691177368164,
                -0.3185112476348877,
                -2.5765397548675537
            ],
            "type" : "VEC3"
        },
        {
            "bufferView" : 21,
            "componentType" : 5126,
            "count" : 4,
            "type" : "VEC3"
        },
        {
            "bufferView" : 22,
            "componentType" : 5126,
            "count" : 4,
            "type" : "VEC2"
        },
        {
            "bufferView" : 23,
            "componentType" : 5123,
            "count" : 6,
            "type" : "SCALAR"
        },
        {
            "bufferView" : 25,
            "componentType" : 5126,
            "count" : 64,
            "max" : [
                -2.530493974685669,
                1.427950143814087,
                2.830078363418579
            ],
            "min" : [
                -2.9795472621917725,
                -0.5720498561859131,
                -2.830078363418579
            ],
            "type" : "VEC3"
        },
        {
            "bufferView" : 26,
            "componentType" : 5126,
            "count" : 64,
            "type" : "VEC3"
        },
        {
            "bufferView" : 27,
            "componentType" : 5126,
            "count" : 64,
            "type" : "VEC2"
        },
        {
            "bufferView" : 28,
            "componentType" : 5123,
            "count" : 102,
            "type" : "SCALAR"
        },
        {
            "bufferView" : 29,
            "componentType" : 5126,
            "count" : 214,
            "max" : [
                1.1460233926773071,
                1.7284427881240845,
                1.0323426723480225
            ],
            "min" : [
                0.2875957489013672,
                -0.9217199087142944,
                0.2571190595626831
            ],
            "type" : "VEC3"
        },
        {
            "bufferView" : 30,
            "componentType" : 5126,
            "count" : 214,
            "type" : "VEC3"
        },
        {
            "bufferView" : 31,
            "componentType" : 5126,
            "count" : 214,
            "type" : "VEC2"
        },
        {
            "bufferView" : 32,
            "componentType" : 5123,
            "count" : 324,
            "type" : "SCALAR"
        },
        {
            "bufferView" : 33,
            "componentType" : 5126,
            "count" : 212,
            "max" : [
                1.1125706434249878,
                1.728442668914795,
                5.674685001373291
            ],
            "min" : [
                0.25414299964904785,
                -0.9217199683189392,
                4.89946174621582
            ],
            "type" : "VEC3"
        },
        {
            "bufferView" : 34,
            "componentType" : 5126,
            "count" : 212,
            "type" : "VEC3"
        },
        {
            "bufferView" : 35,
            "componentType" : 5126,
            "count" : 212,
            "type" : "VEC2"
        },
        {
            "bufferView" : 36,
            "componentType" : 5123,
            "count" : 324,
            "type" : "SCALAR"
        },
        {
            "bufferView" : 37,
            "componentType" : 5126,
            "count" : 24,
            "max" : [
                -1.1829783916473389,
                1.9897540807724,
                -4.703754425048828
            ],
            "min" : [
                -3.1829781532287598,
                -2.0345187187194824,
                -6.884373664855957
            ],
            "type" : "VEC3"
        },
        {
            "bufferView" : 38,
            "componentType" : 5126,
            "count" : 24,
            "type" : "VEC3"
        },
        {
            "bufferView" : 39,
            "componentType" : 5126,
            "count" : 24,
            "type" : "VEC2"
        },
        {
            "bufferView" : 40,
            "componentType" : 5123,
            "count" : 36,
            "type" : "SCALAR"
        }
    ],
    "bufferViews" : [
        {
            "buffer" : 0,
            "byteLength" : 852,
            "byteOffset" : 0
        },
        {
            "buffer" : 0,
            "byteLength" : 852,
            "byteOffset" : 852
        },
        {
            "buffer" : 0,
            "byteLength" : 568,
            "byteOffset" : 1704
        },
        {
            "buffer" : 0,
            "byteLength" : 258,
            "byteOffset" : 2272
        },
        {
            "buffer" : 0,
            "byteLength" : 60,
            "byteOffset" : 2532
        },
        {
            "buffer" : 0,
            "byteLength" : 60,
            "byteOffset" : 2592
        },
        {
            "buffer" : 0,
            "byteLength" : 40,
            "byteOffset" : 2652
        },
        {
            "buffer" : 0,
            "byteLength" : 18,
            "byteOffset" : 2692
        },
        {
            "buffer" : 0,
            "byteLength" : 504,
            "byteOffset" : 2712
        },
        {
            "buffer" : 0,
            "byteLength" : 504,
            "byteOffset" : 3216
        },
        {
            "buffer" : 0,
            "byteLength" : 336,
            "byteOffset" : 3720
        },
        {
            "buffer" : 0,
            "byteLength" : 132,
            "byteOffset" : 4056
        },
        {
            "buffer" : 0,
            "byteLength" : 312,
            "byteOffset" : 4188
        },
        {
            "buffer" : 0,
            "byteLength" : 312,
            "byteOffset" : 4500
        },
        {
            "buffer" : 0,
            "byteLength" : 208,
            "byteOffset" : 4812
        },
        {
            "buffer" : 0,
            "byteLength" : 84,
            "byteOffset" : 5020
        },
        {
            "buffer" : 0,
            "byteLength" : 72,
            "byteOffset" : 5104
        },
        {
            "buffer" : 0,
            "byteLength" : 72,
            "byteOffset" : 5176
        },
        {
            "buffer" : 0,
            "byteLength" : 48,
            "byteOffset" : 5248
        },
        {
            "buffer" : 0,
            "byteLength" : 24,
            "byteOffset" : 5296
        },
        {
            "buffer" : 0,
            "byteLength" : 48,
            "byteOffset" : 5320
        },
        {
            "buffer" : 0,
            "byteLength" : 48,
            "byteOffset" : 5368
        },
        {
            "buffer" : 0,
            "byteLength" : 32,
            "byteOffset" : 5416
        },
        {
            "buffer" : 0,
            "byteLength" : 12,
            "byteOffset" : 5448
        },
        {
            "buffer" : 0,
            "byteLength" : 38665,
            "byteOffset" : 5460
        },
        {
            "buffer" : 0,
            "byteLength" : 768,
            "byteOffset" : 44128
        },
        {
            "buffer" : 0,
            "byteLength" : 768,
            "byteOffset" : 44896
        },
        {
            "buffer" : 0,
            "byteLength" : 512,
            "byteOffset" : 45664
        },
        {
            "buffer" : 0,
            "byteLength" : 204,
            "byteOffset" : 46176
        },
        {
            "buffer" : 0,
            "byteLength" : 2568,
            "byteOffset" : 46380
        },
        {
            "buffer" : 0,
            "byteLength" : 2568,
            "byteOffset" : 48948
        },
        {
            "buffer" : 0,
            "byteLength" : 1712,
            "byteOffset" : 51516
        },
        {
            "buffer" : 0,
            "byteLength" : 648,
            "byteOffset" : 53228
        },
        {
            "buffer" : 0,
            "byteLength" : 2544,
            "byteOffset" : 53876
        },
        {
            "buffer" : 0,
            "byteLength" : 2544,
            "byteOffset" : 56420
        },
        {
            "buffer" : 0,
            "byteLength" : 1696,
            "byteOffset" : 58964
        },
        {
            "buffer" : 0,
            "byteLength" : 648,
            "byteOffset" : 60660
        },
        {
            "buffer" : 0,
            "byteLength" : 288,
            "byteOffset" : 61308
        },
        {
            "buffer" : 0,
            "byteLength" : 288,
            "byteOffset" : 61596
        },
        {
            "buffer" : 0,
            "byteLength" : 192,
            "byteOffset" : 61884
        },
        {
            "buffer" : 0,
            "byteLength" : 72,
            "byteOffset" : 62076
        }
    ],
    "samplers" : [
        {
            "magFilter" : 9729,
            "minFilter" : 9987
        }
    ],
    "buffers" : [
        {
            "byteLength" : 62148,
            "uri" : "data:application/octet-stream;base64,"
        }
    ]
}
