<svg width="65" height="65" viewBox="0 0 65 65" fill="none" xmlns="http://www.w3.org/2000/svg">
<path fill-rule="evenodd" clip-rule="evenodd" d="M8.03812e-07 5.43046C8.03812e-07 3.99022 0.572136 2.60896 1.59054 1.59055C2.60895 0.572143 3.99021 7.23956e-06 5.43046 7.23956e-06H59.5636C60.2774 -0.00115848 60.9843 0.138466 61.6441 0.410886C62.3038 0.683306 62.9033 1.08317 63.4082 1.58759C63.9132 2.09201 64.3137 2.69108 64.5869 3.35049C64.86 4.0099 65.0004 4.71672 65 5.43046V59.5636C65.0008 60.2775 64.8608 60.9846 64.588 61.6443C64.3153 62.304 63.9152 62.9035 63.4105 63.4084C62.9058 63.9133 62.3066 64.3138 61.647 64.5869C60.9874 64.86 60.2805 65.0004 59.5666 65H5.43046C4.71707 65 4.01067 64.8594 3.35163 64.5863C2.69258 64.3133 2.0938 63.913 1.5895 63.4084C1.0852 62.9038 0.685253 62.3048 0.412521 61.6456C0.139789 60.9865 -0.000387328 60.28 8.03812e-07 59.5666V5.43046ZM25.7282 24.7827H34.5298V29.2027C35.8002 26.6618 39.0502 24.375 43.9341 24.375C53.297 24.375 55.5159 29.4361 55.5159 38.7223V55.9236H46.0407V40.8377C46.0407 35.5491 44.7702 32.565 41.5439 32.565C37.0677 32.565 35.2064 35.7825 35.2064 40.8377V55.9236H25.7282V24.7827ZM9.47818 55.5189H18.9564V24.375H9.47818V55.5159V55.5189ZM20.3125 14.2173C20.3304 15.0288 20.186 15.8357 19.8878 16.5907C19.5895 17.3457 19.1435 18.0335 18.5759 18.6137C18.0083 19.194 17.3305 19.655 16.5823 19.9698C15.834 20.2846 15.0305 20.4467 14.2188 20.4467C13.407 20.4467 12.6035 20.2846 11.8552 19.9698C11.107 19.655 10.4292 19.194 9.86159 18.6137C9.29396 18.0335 8.84796 17.3457 8.54975 16.5907C8.25154 15.8357 8.10713 15.0288 8.125 14.2173C8.16008 12.6243 8.8175 11.1085 9.95648 9.99431C11.0955 8.88013 12.6254 8.25624 14.2188 8.25624C15.8121 8.25624 17.342 8.88013 18.481 9.99431C19.62 11.1085 20.2774 12.6243 20.3125 14.2173V14.2173Z" fill="#635243"/>
</svg>
